<?xml version="1.0" encoding="UTF-8" standalone="no"?>
<!-- Created with Inkscape (http://www.inkscape.org/) -->

<svg
   width="0.98995495in"
   height="0.33262187in"
   viewBox="0 0 25.144856 8.4485957"
   version="1.1"
   id="svg5"
   xml:space="preserve"
   inkscape:version="1.2.2 (b0a8486541, 2022-12-01)"
   sodipodi:docname="logo.svg"
   xmlns:inkscape="http://www.inkscape.org/namespaces/inkscape"
   xmlns:sodipodi="http://sodipodi.sourceforge.net/DTD/sodipodi-0.dtd"
   xmlns="http://www.w3.org/2000/svg"
   xmlns:svg="http://www.w3.org/2000/svg"><sodipodi:namedview
     id="namedview7"
     pagecolor="#ffffff"
     bordercolor="#000000"
     borderopacity="0.25"
     inkscape:showpageshadow="2"
     inkscape:pageopacity="0.0"
     inkscape:pagecheckerboard="0"
     inkscape:deskcolor="#d1d1d1"
     inkscape:document-units="mm"
     showgrid="false"
     inkscape:zoom="7.319248"
     inkscape:cx="29.716168"
     inkscape:cy="48.70719"
     inkscape:window-width="1702"
     inkscape:window-height="1396"
     inkscape:window-x="1709"
     inkscape:window-y="38"
     inkscape:window-maximized="1"
     inkscape:current-layer="layer1" /><defs
     id="defs2" /><g
     inkscape:label="Layer 1"
     inkscape:groupmode="layer"
     id="layer1"
     transform="translate(-0.93321189,-0.02664948)"><g
       style="overflow:hidden;fill:currentColor"
       id="g333"
       transform="matrix(0.00855823,0,0,0.00770813,0.01773135,0.43541671)"><path
         d="m 584.38479,817.04002 h -198.9225 c -91.50435,0 -119.35351,-150.66159 -131.28885,-199.62661 0,-7.53308 -7.9569,-11.29962 -11.93535,-15.06617 C 162.66908,534.54954 110.94924,436.61951 106.97078,346.22255 v -33.89886 -7.53308 c 0,-195.86006 171.07336,-357.821271 377.95276,-357.821271 206.8794,0 377.95276,161.961211 377.95276,357.821271 v 37.6654 c 0,94.1635 -47.7414,180.7939 -139.24575,256.1247 -3.97845,3.76653 -7.95691,11.29962 -11.93536,15.06615 -7.9569,52.73157 -35.80605,203.39316 -127.3104,203.39316 z M 484.92354,-11.598724 c -186.98716,0 -338.16825,143.128514 -338.16825,320.155864 v 37.66541 c 3.97844,82.86387 51.71984,165.72775 123.33194,225.99239 11.93535,11.29962 19.89226,22.59924 23.87071,37.66539 27.84914,146.89505 67.63365,169.4943 91.50435,169.4943 h 198.9225 c 19.89225,0 63.6552,-22.59925 91.50435,-169.4943 3.97845,-15.06615 11.93536,-26.36577 23.8707,-37.66539 83.54746,-67.79772 123.33195,-143.12852 123.33195,-225.99239 v -26.36578 -11.29963 c 0,-177.02735 -151.18109,-320.155864 -338.16825,-320.155864 z M 604.27704,892.37082 H 365.57003 c -11.93534,0 -20.99701,-8.17163 -20.99701,-19.47124 0,-11.29963 9.06167,-18.19416 20.99701,-18.19416 h 238.70701 c 11.93535,0 19.89226,7.53306 19.89226,18.83269 0,11.29962 -7.95691,18.83271 -19.89226,18.83271 z m -39.7845,75.33083 H 405.35453 c -11.93534,0 -19.89224,-7.53312 -19.89224,-18.83274 0,-11.29962 7.9569,-18.8327 19.89224,-18.8327 h 159.13801 c 11.93536,0 19.89225,7.53308 19.89225,18.8327 0,11.29962 -7.95689,18.83274 -19.89225,18.83274 z m -39.7845,75.33065 h -79.56899 c -11.93536,0 -19.89226,-7.5329 -19.89226,-18.8326 0,-11.2996 7.9569,-18.8327 19.89226,-18.8327 h 79.56899 c 11.93535,0 19.89225,7.5331 19.89225,18.8327 0,11.2997 -7.9569,18.8326 -19.89225,18.8326 z"
         fill=""
         id="path324"
         sodipodi:nodetypes="ssccccssssccssscccssccscsssssssssssssssssssssss"
         style="stroke-width:1.13409" /><g
         aria-label="S"
         id="text168"
         style="font-size:12px;font-family:Aurella;-inkscape-font-specification:'Aurella, Normal';fill:#000000"
         transform="matrix(71.111559,0,0,80.567764,-32689.441,-24099.271)"><path
           d="m 463.84735,306.96365 q -0.0117,-0.12304 -0.0117,-0.24609 0,-0.66211 0.35742,-1.18359 0.29297,-0.42188 0.73829,-0.59766 0.0117,-0.006 0.0234,0 0.0176,0 0.0176,0.0117 l 0.0586,0.13476 q 0.006,0.006 0,0.0234 0,0.0117 -0.0117,0.0117 -0.33985,0.12305 -0.58008,0.39258 -0.23438,0.26953 -0.32227,0.60937 -0.082,0.30469 -0.082,0.63868 0.006,0.0293 0.006,0.0645 0.0117,0.375 0.16406,0.72656 0.15235,0.3457 0.39844,0.62109 0.24609,0.2754 0.64453,0.4336 0.3457,0.14062 0.75,0.13476 0.0586,0 0.12305,0 0.48633,-0.0234 0.92578,-0.94336 0.33984,-0.71484 0.45703,-1.62304 0.041,-0.33985 0.041,-0.6211 0,-0.54492 -0.16407,-0.86718 -0.0293,-0.0586 -0.0703,-0.11133 -0.0352,-0.0527 -0.0703,-0.0937 -0.0352,-0.0469 -0.0937,-0.0996 -0.0527,-0.0527 -0.0879,-0.082 -0.0293,-0.0293 -0.0996,-0.0762 -0.0703,-0.0527 -0.0996,-0.0703 -0.0234,-0.0234 -0.10547,-0.0703 -0.082,-0.0527 -0.10547,-0.0645 -0.0176,-0.0117 -0.11133,-0.0645 -0.0937,-0.0527 -0.10546,-0.0586 -0.35157,-0.18164 -0.65625,-0.43359 -0.67383,-0.57422 -0.67383,-1.38282 0,-0.11132 0.0117,-0.22265 0.0527,-0.46875 0.26953,-0.85547 0.21679,-0.39258 0.53906,-0.64453 0.32227,-0.25781 0.73242,-0.41016 0.39844,-0.15234 0.82031,-0.15234 0.006,0 0.0176,0 0.4336,0 0.87305,0.11719 0.43945,0.14062 0.74414,0.45703 0.30469,0.31054 0.41016,0.69726 0,0.0176 0.0117,0.0293 0.0176,0.006 0.0234,-0.006 0.41016,-0.23437 0.87305,-0.41016 0.0293,0 0.041,0.0117 l 0.0586,0.0586 q 0.0176,0.0176 -0.0117,0.0527 -0.0762,0.0352 -0.24023,0.10547 -0.15821,0.0703 -0.25196,0.11133 -0.0937,0.041 -0.22265,0.11133 -0.12891,0.0644 -0.22266,0.13476 -0.0234,0.0234 -0.0234,0.041 0.0117,0.0703 0.0117,0.14648 0,0.17578 -0.0586,0.39258 v 0.0117 q -0.11133,0.29297 -0.32227,0.49219 -0.14062,0.13476 -0.28125,0.13476 -0.0645,0 -0.1289,-0.0293 -0.15821,-0.0762 -0.15821,-0.24609 0,-0.16992 0.0937,-0.32812 0.0996,-0.15821 0.22852,-0.28711 0.082,-0.11133 0.41015,-0.375 0.0117,-0.0117 0.0117,-0.0352 -0.0586,-0.38086 -0.3457,-0.67969 -0.28711,-0.29883 -0.70898,-0.44531 -0.23438,-0.0762 -0.45118,-0.0762 -0.38086,0 -0.67382,0.24609 -0.45704,0.375 -0.62696,1.07813 -0.1289,0.5332 -0.1289,0.99609 0,0.62109 0.23437,1.10156 0.13477,0.25196 0.38672,0.46875 0.25195,0.21094 0.54492,0.42188 0.29297,0.21094 0.45117,0.4043 0.35743,0.41015 0.53907,0.92578 0.16406,0.43359 0.1582,0.89062 0,0.082 0,0.16406 -0.0352,0.54493 -0.29297,1.01954 -0.46875,0.91992 -1.59375,1.14257 -0.4043,0.0762 -0.76758,0.0762 -0.94336,0 -1.55273,-0.54493 -0.60352,-0.53906 -0.68555,-1.40625 z m 5.02149,-5.03906 q -0.0703,0.11719 -0.0996,0.23438 -0.0293,0.11132 0.0762,0.15234 0.11719,0.0469 0.27539,-0.12305 0.1582,-0.17578 0.22851,-0.38086 v -0.0117 q 0.0586,-0.20507 0.0586,-0.33398 0,-0.0234 0,-0.041 0,-0.0176 -0.0176,-0.0234 -0.0176,-0.0117 -0.0293,0 -0.16992,0.11718 -0.33398,0.32226 -0.0879,0.0879 -0.1582,0.20508 z"
           id="path898" /></g></g><g
       aria-label="Slite"
       transform="scale(1.0111129,0.98900924)"
       id="text295"
       style="font-size:10.3635px;font-family:Allura;-inkscape-font-specification:'Allura, Normal';stroke-width:0.863626"><path
         d="m 14.516059,1.8746722 q 0,0.227997 -0.186543,0.5285385 -0.155452,0.2798145 -0.352359,0.3834495 -0.186543,0.103635 -0.186543,-0.020727 0,-0.010363 0.113999,-0.124362 0.341995,-0.3212685 0.341995,-0.5285385 0,-0.4456304 -0.880897,-0.4456304 -0.373086,0 -0.984533,0.1450889 -0.611446,0.1347255 -1.181439,0.4456305 -0.663263,0.3627225 -0.663263,0.6321735 0,0.2176335 0.404176,0.41454 0.217633,0.103635 0.86017,0.352359 0.652901,0.2383605 1.046714,0.4249035 0.404176,0.1761795 0.756535,0.5078115 0.362723,0.3316319 0.362723,0.7358084 0,0.4041765 -0.476721,0.8808975 -0.725445,0.6943545 -1.886157,1.1503485 -1.160712,0.4663574 -1.989792,0.4663574 -1.6374329,0 -1.6374329,-0.9223514 0,-0.9223515 1.0052595,-1.5648885 0.8290799,-0.5699925 1.7410674,-0.5699925 0.217634,0 0.196907,0.072545 -0.02073,0.072545 -0.310905,0.082908 -0.290178,0 -0.746172,0.1969065 -0.455994,0.186543 -0.8498069,0.5492655 -0.518175,0.4663575 -0.518175,0.932715 0,0.290178 0.2798145,0.518175 0.2798145,0.227997 1.0674404,0.227997 0.787626,0 1.554525,-0.248724 1.65816,-0.5492655 2.0727,-1.202166 0.165816,-0.2383605 0.165816,-0.4041765 0,-0.476721 -0.580356,-0.746172 Q 12.381178,4.4344567 11.168649,4.0302802 10.702291,3.8748277 10.37066,3.6261037 10.049391,3.3670162 10.049391,3.0146572 q 0,-0.3627225 0.38345,-0.704718 0.393812,-0.352359 0.943078,-0.559629 1.181439,-0.4456304 2.000155,-0.4456304 1.139985,0 1.139985,0.5699924 z"
         id="path311" /><path
         d="m 17.977478,2.0612152 q 0.124362,-0.227997 0.124362,-0.3523589 0,-0.2176335 -0.176179,-0.2176335 -0.145089,0 -0.362723,0.165816 -0.82908,0.6425369 -1.606342,2.0312459 -0.62181,1.1192579 -0.911988,1.9172474 0.715081,-0.4870845 1.595979,-1.5856154 0.891261,-1.098531 1.336891,-1.9587015 z m -3.088323,3.9588569 q -0.124362,0.352359 -0.134725,0.476721 -0.01036,0.1139985 -0.01036,0.3212685 0,0.1969065 0.103634,0.3627225 0.17618,0.2798145 0.59072,0.041454 0.310905,-0.165816 0.787626,-0.601083 0.476721,-0.4456305 0.735808,-0.808353 0.02073,-0.03109 0.06218,-0.03109 0.09327,0 0.05182,0.1347255 -0.155453,0.2798145 -0.580356,0.7150815 -0.41454,0.435267 -0.756536,0.6943545 -0.341995,0.2487239 -0.683991,0.2487239 -0.787625,0 -0.787625,-0.7668989 0,-0.03109 0,-0.062181 0.04145,-0.725445 0.735808,-2.1866984 0.694354,-1.471617 1.253983,-2.217789 l 0.321269,-0.4041765 q 0.113998,-0.1347255 0.331632,-0.3316319 0.41454,-0.393813 0.849807,-0.393813 0.44563,0 0.601083,0.269451 0.05182,0.093271 0.05182,0.2694509 0,0.1761795 -0.155452,0.497448 -1.067441,1.8550665 -3.368138,3.7723139 z"
         id="path313" /><path
         d="m 17.811669,4.4759107 q 0.259088,0 0.310905,0.1658159 0.02073,0.093272 -0.03109,0.186543 -0.04145,0.082908 -0.06218,0.1347255 -0.02073,0.051818 -0.03109,0.082908 -0.05182,0.103635 -0.103635,0.1969065 -0.590719,1.181439 -0.62181,1.5027075 -0.01036,0.093272 -0.01036,0.2383605 0,0.145089 0.08291,0.2383605 0.145089,0.165816 0.41454,0.020727 0.269451,-0.145089 0.746172,-0.580356 0.487084,-0.435267 0.787626,-0.849807 0.04145,-0.051818 0.09327,-0.020727 0.05182,0.020727 0.05182,0.051818 0,0.020727 -0.02073,0.051817 -0.155453,0.2798145 -0.559629,0.7150815 -0.663264,0.7150815 -1.108895,0.8808975 -0.259087,0.093271 -0.435267,0.093271 -0.41454,0 -0.549265,-0.3938129 -0.02073,-0.072545 -0.02073,-0.1761795 0,-0.3627225 0.331632,-1.098531 -0.05182,0.1139985 -0.404177,0.518175 -0.09327,0.103635 -0.145089,0 -0.01036,-0.020727 -0.01036,-0.051817 0,-0.041454 0.04145,-0.093272 0.507811,-0.6321735 0.797989,-1.0674405 -0.02073,-0.051818 0.02073,-0.1347255 0.20727,-0.5803559 0.362723,-0.6114464 0.03109,0 0.07254,0 z m 0.818717,-1.3783455 -0.08291,0.331632 q 0,0.093272 -0.134726,0.3005415 -0.134725,0.20727 -0.20727,0.20727 -0.44563,0 -0.44563,-0.2176335 0,-0.041454 0.44563,-0.3834495 l 0.17618,-0.1347255 q 0.165816,-0.145089 0.20727,-0.145089 0.04145,0 0.04145,0.041454 z"
         id="path315" /><path
         d="m 20.817082,4.4448202 q 0.797989,-0.072544 0.963805,-0.072544 0.17618,0 0.17618,0.051817 0,0.062181 -0.248724,0.1347255 -0.238361,0.062181 -1.181439,0.1658159 -0.05182,0.093272 -0.124362,0.2176335 -0.155453,0.248724 -0.165816,0.3005415 -0.59072,1.181439 -0.62181,1.5027075 -0.01036,0.093272 -0.01036,0.2383605 0,0.145089 0.08291,0.2383605 0.145089,0.165816 0.41454,0.020727 0.269451,-0.145089 0.746172,-0.580356 0.487085,-0.435267 0.787626,-0.849807 0.04145,-0.051818 0.103635,-0.020727 0.155453,0.072545 -0.538902,0.8187165 -0.663264,0.7150815 -1.108894,0.8808975 -0.259088,0.093271 -0.435267,0.093271 -0.41454,0 -0.549266,-0.3938129 -0.02073,-0.072545 -0.02073,-0.1761795 0,-0.3627225 0.331632,-1.098531 -0.05182,0.1139985 -0.404176,0.518175 -0.09327,0.103635 -0.145089,0 -0.01036,-0.020727 -0.01036,-0.051817 0,-0.041454 0.04145,-0.093272 0.507812,-0.6321735 0.79799,-1.0674405 0,-0.010364 0.227997,-0.435267 -0.103635,0.020727 -0.217634,0.020727 -0.103635,0 -0.155452,-0.062181 -0.05182,-0.072545 -0.01036,-0.1658159 0.07255,-0.165816 0.549266,-0.186543 0.01036,-0.020727 0.04145,-0.020727 l 0.518175,-0.9638055 q 0.04145,-0.082908 0.09327,-0.165816 0.05182,-0.093272 0.07254,-0.1347255 0.03109,-0.051817 0.06218,-0.103635 0.03109,-0.051817 0.05182,-0.072544 0.02073,-0.020727 0.04145,-0.041454 0.04145,-0.062181 0.238361,-0.062181 0.20727,0 0.279814,0.1139985 0.03109,0.041454 0.03109,0.145089 0,0.093271 -0.07254,0.2176335 -0.07254,0.1139985 -0.155452,0.165816 -0.08291,0.051818 -0.113999,0.1139985 l -0.497448,0.870534 z"
         id="path317" /><path
         d="m 23.89504,4.3308217 q 0.559629,0 0.559629,0.5389019 0,0.2798145 -0.155452,0.455994 -0.259088,0.3834495 -0.839444,0.6736275 -0.580356,0.2798145 -0.984532,0.310905 -0.145089,0.010363 -0.155453,-0.082908 -0.01036,-0.041454 0.02073,-0.051818 0.04145,-0.010364 0.06218,-0.010364 0.238361,-0.020727 0.611447,-0.227997 0.694354,-0.373086 1.015623,-0.766899 0.134725,-0.186543 0.134725,-0.352359 0,-0.1761795 -0.165816,-0.1761795 -0.134725,0 -0.362722,0.1139985 -0.487085,0.227997 -1.025987,0.7979895 -0.538902,0.559629 -0.704718,1.098531 -0.05182,0.165816 -0.05182,0.331632 0,0.1554525 0.134725,0.3005415 0.134726,0.145089 0.41454,0.145089 0.310905,0 0.715082,-0.165816 1.171075,-0.476721 1.803249,-1.4405265 0.06218,-0.082908 0.113998,-0.031091 0.04145,0.020727 0.04145,0.051818 0,0.03109 -0.03109,0.072544 -0.310905,0.518175 -0.787626,0.9223515 -0.922352,0.7876259 -1.792886,0.7876259 -0.746172,0 -1.046713,-0.4456304 -0.113999,-0.1761795 -0.113999,-0.4249035 0,-0.248724 0.134726,-0.5907195 0.259087,-0.5907195 1.108894,-1.2125295 0.849807,-0.6218099 1.347255,-0.6218099 z"
         id="path319" /></g></g></svg>
